M48
; DRILL file {KiCad 7.0.7} date Mon Sep 11 14:58:09 2023
; FORMAT={-:-/ absolute / inch / decimal}
; #@! TF.CreationDate,2023-09-11T14:58:09+03:00
; #@! TF.GenerationSoftware,Kicad,Pcbnew,7.0.7
; #@! TF.FileFunction,Plated,1,4,PTH
FMAT,2
INCH
; #@! TA.AperFunction,Plated,PTH,ComponentDrill
T1C0.0315
; #@! TA.AperFunction,Plated,PTH,ComponentDrill
T2C0.0394
; #@! TA.AperFunction,Plated,PTH,ComponentDrill
T3C0.0400
; #@! TA.AperFunction,Plated,PTH,ComponentDrill
T4C0.0433
; #@! TA.AperFunction,Plated,PTH,ComponentDrill
T5C0.0512
%
G90
G05
T1
X6.6Y-4.3
X6.6Y-4.6
X7.0Y-4.3
X7.0Y-4.6
T2
X4.4Y-4.7
X4.4Y-4.8
X4.6Y-3.1
X4.6Y-3.2
X4.9Y-3.1
X4.9Y-3.2
X5.2Y-3.1
X5.2Y-3.2
X5.5Y-3.1
X5.5Y-3.2
X5.6Y-4.7
X5.7Y-4.7
X5.7831Y-3.1
X5.7831Y-3.2
X5.8Y-4.7
X5.9Y-4.7
X6.1Y-3.1
X6.1Y-3.2
X7.3Y-3.6
X7.4Y-3.6
X7.4Y-4.3
X7.4Y-4.4
X7.4Y-4.7
X7.4Y-4.8
X7.6504Y-3.6
X7.9496Y-3.6
T3
X4.5Y-3.7
X4.5Y-4.3
X4.6Y-3.7
X4.6Y-4.3
X4.7Y-3.7
X4.7Y-4.3
X4.8Y-3.7
X4.8Y-4.3
X4.9Y-3.7
X4.9Y-4.3
X5.0Y-3.7
X5.0Y-4.3
X5.1Y-3.7
X5.1Y-4.3
X5.2Y-3.7
X5.2Y-4.3
X5.3Y-3.7
X5.3Y-4.3
X5.4Y-3.7
X5.4Y-4.3
X5.5Y-3.7
X5.5Y-4.3
X5.6Y-3.7
X5.6Y-4.3
X5.7Y-3.7
X5.7Y-4.3
X5.8Y-3.7
X5.8Y-4.3
X5.9Y-3.7
X5.9Y-4.3
T4
X4.8Y-4.7
X4.9Y-4.7
X5.0Y-4.7
T5
X6.6Y-3.5031
X6.6Y-3.7
X6.9937Y-3.6016
T0
M30
