%TF.GenerationSoftware,KiCad,Pcbnew,7.0.7*%
%TF.CreationDate,2023-09-11T15:30:13+03:00*%
%TF.ProjectId,PCB,5043422e-6b69-4636-9164-5f7063625858,rev?*%
%TF.SameCoordinates,Original*%
%TF.FileFunction,Legend,Top*%
%TF.FilePolarity,Positive*%
%FSLAX46Y46*%
G04 Gerber Fmt 4.6, Leading zero omitted, Abs format (unit mm)*
G04 Created by KiCad (PCBNEW 7.0.7) date 2023-09-11 15:30:13*
%MOMM*%
%LPD*%
G01*
G04 APERTURE LIST*
%ADD10C,0.150000*%
%ADD11C,0.075000*%
%ADD12C,0.120000*%
G04 APERTURE END LIST*
D10*
X107886666Y-82614819D02*
X107553333Y-82138628D01*
X107315238Y-82614819D02*
X107315238Y-81614819D01*
X107315238Y-81614819D02*
X107696190Y-81614819D01*
X107696190Y-81614819D02*
X107791428Y-81662438D01*
X107791428Y-81662438D02*
X107839047Y-81710057D01*
X107839047Y-81710057D02*
X107886666Y-81805295D01*
X107886666Y-81805295D02*
X107886666Y-81948152D01*
X107886666Y-81948152D02*
X107839047Y-82043390D01*
X107839047Y-82043390D02*
X107791428Y-82091009D01*
X107791428Y-82091009D02*
X107696190Y-82138628D01*
X107696190Y-82138628D02*
X107315238Y-82138628D01*
X108315238Y-82091009D02*
X108648571Y-82091009D01*
X108791428Y-82614819D02*
X108315238Y-82614819D01*
X108315238Y-82614819D02*
X108315238Y-81614819D01*
X108315238Y-81614819D02*
X108791428Y-81614819D01*
X109553333Y-82091009D02*
X109220000Y-82091009D01*
X109220000Y-82614819D02*
X109220000Y-81614819D01*
X109220000Y-81614819D02*
X109696190Y-81614819D01*
X110220000Y-81614819D02*
X110220000Y-81852914D01*
X109981905Y-81757676D02*
X110220000Y-81852914D01*
X110220000Y-81852914D02*
X110458095Y-81757676D01*
X110077143Y-82043390D02*
X110220000Y-81852914D01*
X110220000Y-81852914D02*
X110362857Y-82043390D01*
X110981905Y-81614819D02*
X110981905Y-81852914D01*
X110743810Y-81757676D02*
X110981905Y-81852914D01*
X110981905Y-81852914D02*
X111220000Y-81757676D01*
X110839048Y-82043390D02*
X110981905Y-81852914D01*
X110981905Y-81852914D02*
X111124762Y-82043390D01*
X196786666Y-120714819D02*
X196453333Y-120238628D01*
X196215238Y-120714819D02*
X196215238Y-119714819D01*
X196215238Y-119714819D02*
X196596190Y-119714819D01*
X196596190Y-119714819D02*
X196691428Y-119762438D01*
X196691428Y-119762438D02*
X196739047Y-119810057D01*
X196739047Y-119810057D02*
X196786666Y-119905295D01*
X196786666Y-119905295D02*
X196786666Y-120048152D01*
X196786666Y-120048152D02*
X196739047Y-120143390D01*
X196739047Y-120143390D02*
X196691428Y-120191009D01*
X196691428Y-120191009D02*
X196596190Y-120238628D01*
X196596190Y-120238628D02*
X196215238Y-120238628D01*
X197215238Y-120191009D02*
X197548571Y-120191009D01*
X197691428Y-120714819D02*
X197215238Y-120714819D01*
X197215238Y-120714819D02*
X197215238Y-119714819D01*
X197215238Y-119714819D02*
X197691428Y-119714819D01*
X198453333Y-120191009D02*
X198120000Y-120191009D01*
X198120000Y-120714819D02*
X198120000Y-119714819D01*
X198120000Y-119714819D02*
X198596190Y-119714819D01*
X199120000Y-119714819D02*
X199120000Y-119952914D01*
X198881905Y-119857676D02*
X199120000Y-119952914D01*
X199120000Y-119952914D02*
X199358095Y-119857676D01*
X198977143Y-120143390D02*
X199120000Y-119952914D01*
X199120000Y-119952914D02*
X199262857Y-120143390D01*
X199881905Y-119714819D02*
X199881905Y-119952914D01*
X199643810Y-119857676D02*
X199881905Y-119952914D01*
X199881905Y-119952914D02*
X200120000Y-119857676D01*
X199739048Y-120143390D02*
X199881905Y-119952914D01*
X199881905Y-119952914D02*
X200024762Y-120143390D01*
X196786666Y-72454819D02*
X196453333Y-71978628D01*
X196215238Y-72454819D02*
X196215238Y-71454819D01*
X196215238Y-71454819D02*
X196596190Y-71454819D01*
X196596190Y-71454819D02*
X196691428Y-71502438D01*
X196691428Y-71502438D02*
X196739047Y-71550057D01*
X196739047Y-71550057D02*
X196786666Y-71645295D01*
X196786666Y-71645295D02*
X196786666Y-71788152D01*
X196786666Y-71788152D02*
X196739047Y-71883390D01*
X196739047Y-71883390D02*
X196691428Y-71931009D01*
X196691428Y-71931009D02*
X196596190Y-71978628D01*
X196596190Y-71978628D02*
X196215238Y-71978628D01*
X197215238Y-71931009D02*
X197548571Y-71931009D01*
X197691428Y-72454819D02*
X197215238Y-72454819D01*
X197215238Y-72454819D02*
X197215238Y-71454819D01*
X197215238Y-71454819D02*
X197691428Y-71454819D01*
X198453333Y-71931009D02*
X198120000Y-71931009D01*
X198120000Y-72454819D02*
X198120000Y-71454819D01*
X198120000Y-71454819D02*
X198596190Y-71454819D01*
X199120000Y-71454819D02*
X199120000Y-71692914D01*
X198881905Y-71597676D02*
X199120000Y-71692914D01*
X199120000Y-71692914D02*
X199358095Y-71597676D01*
X198977143Y-71883390D02*
X199120000Y-71692914D01*
X199120000Y-71692914D02*
X199262857Y-71883390D01*
X199881905Y-71454819D02*
X199881905Y-71692914D01*
X199643810Y-71597676D02*
X199881905Y-71692914D01*
X199881905Y-71692914D02*
X200120000Y-71597676D01*
X199739048Y-71883390D02*
X199881905Y-71692914D01*
X199881905Y-71692914D02*
X200024762Y-71883390D01*
X155109104Y-102314285D02*
X155109104Y-101838095D01*
X155394819Y-102409523D02*
X154394819Y-102076190D01*
X154394819Y-102076190D02*
X155394819Y-101742857D01*
X155394819Y-100885714D02*
X155394819Y-101457142D01*
X155394819Y-101171428D02*
X154394819Y-101171428D01*
X154394819Y-101171428D02*
X154537676Y-101266666D01*
X154537676Y-101266666D02*
X154632914Y-101361904D01*
X154632914Y-101361904D02*
X154680533Y-101457142D01*
D11*
X112129047Y-98832590D02*
X112129047Y-99332590D01*
X112129047Y-99332590D02*
X112009999Y-99332590D01*
X112009999Y-99332590D02*
X111938571Y-99308780D01*
X111938571Y-99308780D02*
X111890952Y-99261161D01*
X111890952Y-99261161D02*
X111867142Y-99213542D01*
X111867142Y-99213542D02*
X111843333Y-99118304D01*
X111843333Y-99118304D02*
X111843333Y-99046876D01*
X111843333Y-99046876D02*
X111867142Y-98951638D01*
X111867142Y-98951638D02*
X111890952Y-98904019D01*
X111890952Y-98904019D02*
X111938571Y-98856400D01*
X111938571Y-98856400D02*
X112009999Y-98832590D01*
X112009999Y-98832590D02*
X112129047Y-98832590D01*
X111533809Y-99332590D02*
X111486190Y-99332590D01*
X111486190Y-99332590D02*
X111438571Y-99308780D01*
X111438571Y-99308780D02*
X111414761Y-99284971D01*
X111414761Y-99284971D02*
X111390952Y-99237352D01*
X111390952Y-99237352D02*
X111367142Y-99142114D01*
X111367142Y-99142114D02*
X111367142Y-99023066D01*
X111367142Y-99023066D02*
X111390952Y-98927828D01*
X111390952Y-98927828D02*
X111414761Y-98880209D01*
X111414761Y-98880209D02*
X111438571Y-98856400D01*
X111438571Y-98856400D02*
X111486190Y-98832590D01*
X111486190Y-98832590D02*
X111533809Y-98832590D01*
X111533809Y-98832590D02*
X111581428Y-98856400D01*
X111581428Y-98856400D02*
X111605237Y-98880209D01*
X111605237Y-98880209D02*
X111629047Y-98927828D01*
X111629047Y-98927828D02*
X111652856Y-99023066D01*
X111652856Y-99023066D02*
X111652856Y-99142114D01*
X111652856Y-99142114D02*
X111629047Y-99237352D01*
X111629047Y-99237352D02*
X111605237Y-99284971D01*
X111605237Y-99284971D02*
X111581428Y-99308780D01*
X111581428Y-99308780D02*
X111533809Y-99332590D01*
D10*
X123698095Y-114564819D02*
X123698095Y-115374342D01*
X123698095Y-115374342D02*
X123745714Y-115469580D01*
X123745714Y-115469580D02*
X123793333Y-115517200D01*
X123793333Y-115517200D02*
X123888571Y-115564819D01*
X123888571Y-115564819D02*
X124079047Y-115564819D01*
X124079047Y-115564819D02*
X124174285Y-115517200D01*
X124174285Y-115517200D02*
X124221904Y-115469580D01*
X124221904Y-115469580D02*
X124269523Y-115374342D01*
X124269523Y-115374342D02*
X124269523Y-114564819D01*
X125269523Y-115564819D02*
X124698095Y-115564819D01*
X124983809Y-115564819D02*
X124983809Y-114564819D01*
X124983809Y-114564819D02*
X124888571Y-114707676D01*
X124888571Y-114707676D02*
X124793333Y-114802914D01*
X124793333Y-114802914D02*
X124698095Y-114850533D01*
X172044761Y-85784819D02*
X171711428Y-85308628D01*
X171473333Y-85784819D02*
X171473333Y-84784819D01*
X171473333Y-84784819D02*
X171854285Y-84784819D01*
X171854285Y-84784819D02*
X171949523Y-84832438D01*
X171949523Y-84832438D02*
X171997142Y-84880057D01*
X171997142Y-84880057D02*
X172044761Y-84975295D01*
X172044761Y-84975295D02*
X172044761Y-85118152D01*
X172044761Y-85118152D02*
X171997142Y-85213390D01*
X171997142Y-85213390D02*
X171949523Y-85261009D01*
X171949523Y-85261009D02*
X171854285Y-85308628D01*
X171854285Y-85308628D02*
X171473333Y-85308628D01*
X172330476Y-84784819D02*
X172663809Y-85784819D01*
X172663809Y-85784819D02*
X172997142Y-84784819D01*
X173854285Y-85784819D02*
X173282857Y-85784819D01*
X173568571Y-85784819D02*
X173568571Y-84784819D01*
X173568571Y-84784819D02*
X173473333Y-84927676D01*
X173473333Y-84927676D02*
X173378095Y-85022914D01*
X173378095Y-85022914D02*
X173282857Y-85070533D01*
X172553333Y-107304819D02*
X172220000Y-106828628D01*
X171981905Y-107304819D02*
X171981905Y-106304819D01*
X171981905Y-106304819D02*
X172362857Y-106304819D01*
X172362857Y-106304819D02*
X172458095Y-106352438D01*
X172458095Y-106352438D02*
X172505714Y-106400057D01*
X172505714Y-106400057D02*
X172553333Y-106495295D01*
X172553333Y-106495295D02*
X172553333Y-106638152D01*
X172553333Y-106638152D02*
X172505714Y-106733390D01*
X172505714Y-106733390D02*
X172458095Y-106781009D01*
X172458095Y-106781009D02*
X172362857Y-106828628D01*
X172362857Y-106828628D02*
X171981905Y-106828628D01*
X172934286Y-106400057D02*
X172981905Y-106352438D01*
X172981905Y-106352438D02*
X173077143Y-106304819D01*
X173077143Y-106304819D02*
X173315238Y-106304819D01*
X173315238Y-106304819D02*
X173410476Y-106352438D01*
X173410476Y-106352438D02*
X173458095Y-106400057D01*
X173458095Y-106400057D02*
X173505714Y-106495295D01*
X173505714Y-106495295D02*
X173505714Y-106590533D01*
X173505714Y-106590533D02*
X173458095Y-106733390D01*
X173458095Y-106733390D02*
X172886667Y-107304819D01*
X172886667Y-107304819D02*
X173505714Y-107304819D01*
X172553333Y-114924819D02*
X172220000Y-114448628D01*
X171981905Y-114924819D02*
X171981905Y-113924819D01*
X171981905Y-113924819D02*
X172362857Y-113924819D01*
X172362857Y-113924819D02*
X172458095Y-113972438D01*
X172458095Y-113972438D02*
X172505714Y-114020057D01*
X172505714Y-114020057D02*
X172553333Y-114115295D01*
X172553333Y-114115295D02*
X172553333Y-114258152D01*
X172553333Y-114258152D02*
X172505714Y-114353390D01*
X172505714Y-114353390D02*
X172458095Y-114401009D01*
X172458095Y-114401009D02*
X172362857Y-114448628D01*
X172362857Y-114448628D02*
X171981905Y-114448628D01*
X173505714Y-114924819D02*
X172934286Y-114924819D01*
X173220000Y-114924819D02*
X173220000Y-113924819D01*
X173220000Y-113924819D02*
X173124762Y-114067676D01*
X173124762Y-114067676D02*
X173029524Y-114162914D01*
X173029524Y-114162914D02*
X172934286Y-114210533D01*
X110950476Y-123704819D02*
X110950476Y-124419104D01*
X110950476Y-124419104D02*
X110902857Y-124561961D01*
X110902857Y-124561961D02*
X110807619Y-124657200D01*
X110807619Y-124657200D02*
X110664762Y-124704819D01*
X110664762Y-124704819D02*
X110569524Y-124704819D01*
X111950476Y-124704819D02*
X111379048Y-124704819D01*
X111664762Y-124704819D02*
X111664762Y-123704819D01*
X111664762Y-123704819D02*
X111569524Y-123847676D01*
X111569524Y-123847676D02*
X111474286Y-123942914D01*
X111474286Y-123942914D02*
X111379048Y-123990533D01*
X112902857Y-124704819D02*
X112331429Y-124704819D01*
X112617143Y-124704819D02*
X112617143Y-123704819D01*
X112617143Y-123704819D02*
X112521905Y-123847676D01*
X112521905Y-123847676D02*
X112426667Y-123942914D01*
X112426667Y-123942914D02*
X112331429Y-123990533D01*
X187150476Y-106344819D02*
X187150476Y-107059104D01*
X187150476Y-107059104D02*
X187102857Y-107201961D01*
X187102857Y-107201961D02*
X187007619Y-107297200D01*
X187007619Y-107297200D02*
X186864762Y-107344819D01*
X186864762Y-107344819D02*
X186769524Y-107344819D01*
X188150476Y-107344819D02*
X187579048Y-107344819D01*
X187864762Y-107344819D02*
X187864762Y-106344819D01*
X187864762Y-106344819D02*
X187769524Y-106487676D01*
X187769524Y-106487676D02*
X187674286Y-106582914D01*
X187674286Y-106582914D02*
X187579048Y-106630533D01*
X188769524Y-106344819D02*
X188864762Y-106344819D01*
X188864762Y-106344819D02*
X188960000Y-106392438D01*
X188960000Y-106392438D02*
X189007619Y-106440057D01*
X189007619Y-106440057D02*
X189055238Y-106535295D01*
X189055238Y-106535295D02*
X189102857Y-106725771D01*
X189102857Y-106725771D02*
X189102857Y-106963866D01*
X189102857Y-106963866D02*
X189055238Y-107154342D01*
X189055238Y-107154342D02*
X189007619Y-107249580D01*
X189007619Y-107249580D02*
X188960000Y-107297200D01*
X188960000Y-107297200D02*
X188864762Y-107344819D01*
X188864762Y-107344819D02*
X188769524Y-107344819D01*
X188769524Y-107344819D02*
X188674286Y-107297200D01*
X188674286Y-107297200D02*
X188626667Y-107249580D01*
X188626667Y-107249580D02*
X188579048Y-107154342D01*
X188579048Y-107154342D02*
X188531429Y-106963866D01*
X188531429Y-106963866D02*
X188531429Y-106725771D01*
X188531429Y-106725771D02*
X188579048Y-106535295D01*
X188579048Y-106535295D02*
X188626667Y-106440057D01*
X188626667Y-106440057D02*
X188674286Y-106392438D01*
X188674286Y-106392438D02*
X188769524Y-106344819D01*
X187626666Y-116504819D02*
X187626666Y-117219104D01*
X187626666Y-117219104D02*
X187579047Y-117361961D01*
X187579047Y-117361961D02*
X187483809Y-117457200D01*
X187483809Y-117457200D02*
X187340952Y-117504819D01*
X187340952Y-117504819D02*
X187245714Y-117504819D01*
X188150476Y-117504819D02*
X188340952Y-117504819D01*
X188340952Y-117504819D02*
X188436190Y-117457200D01*
X188436190Y-117457200D02*
X188483809Y-117409580D01*
X188483809Y-117409580D02*
X188579047Y-117266723D01*
X188579047Y-117266723D02*
X188626666Y-117076247D01*
X188626666Y-117076247D02*
X188626666Y-116695295D01*
X188626666Y-116695295D02*
X188579047Y-116600057D01*
X188579047Y-116600057D02*
X188531428Y-116552438D01*
X188531428Y-116552438D02*
X188436190Y-116504819D01*
X188436190Y-116504819D02*
X188245714Y-116504819D01*
X188245714Y-116504819D02*
X188150476Y-116552438D01*
X188150476Y-116552438D02*
X188102857Y-116600057D01*
X188102857Y-116600057D02*
X188055238Y-116695295D01*
X188055238Y-116695295D02*
X188055238Y-116933390D01*
X188055238Y-116933390D02*
X188102857Y-117028628D01*
X188102857Y-117028628D02*
X188150476Y-117076247D01*
X188150476Y-117076247D02*
X188245714Y-117123866D01*
X188245714Y-117123866D02*
X188436190Y-117123866D01*
X188436190Y-117123866D02*
X188531428Y-117076247D01*
X188531428Y-117076247D02*
X188579047Y-117028628D01*
X188579047Y-117028628D02*
X188626666Y-116933390D01*
X182544819Y-91773333D02*
X183259104Y-91773333D01*
X183259104Y-91773333D02*
X183401961Y-91820952D01*
X183401961Y-91820952D02*
X183497200Y-91916190D01*
X183497200Y-91916190D02*
X183544819Y-92059047D01*
X183544819Y-92059047D02*
X183544819Y-92154285D01*
X182973390Y-91154285D02*
X182925771Y-91249523D01*
X182925771Y-91249523D02*
X182878152Y-91297142D01*
X182878152Y-91297142D02*
X182782914Y-91344761D01*
X182782914Y-91344761D02*
X182735295Y-91344761D01*
X182735295Y-91344761D02*
X182640057Y-91297142D01*
X182640057Y-91297142D02*
X182592438Y-91249523D01*
X182592438Y-91249523D02*
X182544819Y-91154285D01*
X182544819Y-91154285D02*
X182544819Y-90963809D01*
X182544819Y-90963809D02*
X182592438Y-90868571D01*
X182592438Y-90868571D02*
X182640057Y-90820952D01*
X182640057Y-90820952D02*
X182735295Y-90773333D01*
X182735295Y-90773333D02*
X182782914Y-90773333D01*
X182782914Y-90773333D02*
X182878152Y-90820952D01*
X182878152Y-90820952D02*
X182925771Y-90868571D01*
X182925771Y-90868571D02*
X182973390Y-90963809D01*
X182973390Y-90963809D02*
X182973390Y-91154285D01*
X182973390Y-91154285D02*
X183021009Y-91249523D01*
X183021009Y-91249523D02*
X183068628Y-91297142D01*
X183068628Y-91297142D02*
X183163866Y-91344761D01*
X183163866Y-91344761D02*
X183354342Y-91344761D01*
X183354342Y-91344761D02*
X183449580Y-91297142D01*
X183449580Y-91297142D02*
X183497200Y-91249523D01*
X183497200Y-91249523D02*
X183544819Y-91154285D01*
X183544819Y-91154285D02*
X183544819Y-90963809D01*
X183544819Y-90963809D02*
X183497200Y-90868571D01*
X183497200Y-90868571D02*
X183449580Y-90820952D01*
X183449580Y-90820952D02*
X183354342Y-90773333D01*
X183354342Y-90773333D02*
X183163866Y-90773333D01*
X183163866Y-90773333D02*
X183068628Y-90820952D01*
X183068628Y-90820952D02*
X183021009Y-90868571D01*
X183021009Y-90868571D02*
X182973390Y-90963809D01*
X116506666Y-83064819D02*
X116506666Y-83779104D01*
X116506666Y-83779104D02*
X116459047Y-83921961D01*
X116459047Y-83921961D02*
X116363809Y-84017200D01*
X116363809Y-84017200D02*
X116220952Y-84064819D01*
X116220952Y-84064819D02*
X116125714Y-84064819D01*
X116887619Y-83064819D02*
X117554285Y-83064819D01*
X117554285Y-83064819D02*
X117125714Y-84064819D01*
X124126666Y-83064819D02*
X124126666Y-83779104D01*
X124126666Y-83779104D02*
X124079047Y-83921961D01*
X124079047Y-83921961D02*
X123983809Y-84017200D01*
X123983809Y-84017200D02*
X123840952Y-84064819D01*
X123840952Y-84064819D02*
X123745714Y-84064819D01*
X125031428Y-83064819D02*
X124840952Y-83064819D01*
X124840952Y-83064819D02*
X124745714Y-83112438D01*
X124745714Y-83112438D02*
X124698095Y-83160057D01*
X124698095Y-83160057D02*
X124602857Y-83302914D01*
X124602857Y-83302914D02*
X124555238Y-83493390D01*
X124555238Y-83493390D02*
X124555238Y-83874342D01*
X124555238Y-83874342D02*
X124602857Y-83969580D01*
X124602857Y-83969580D02*
X124650476Y-84017200D01*
X124650476Y-84017200D02*
X124745714Y-84064819D01*
X124745714Y-84064819D02*
X124936190Y-84064819D01*
X124936190Y-84064819D02*
X125031428Y-84017200D01*
X125031428Y-84017200D02*
X125079047Y-83969580D01*
X125079047Y-83969580D02*
X125126666Y-83874342D01*
X125126666Y-83874342D02*
X125126666Y-83636247D01*
X125126666Y-83636247D02*
X125079047Y-83541009D01*
X125079047Y-83541009D02*
X125031428Y-83493390D01*
X125031428Y-83493390D02*
X124936190Y-83445771D01*
X124936190Y-83445771D02*
X124745714Y-83445771D01*
X124745714Y-83445771D02*
X124650476Y-83493390D01*
X124650476Y-83493390D02*
X124602857Y-83541009D01*
X124602857Y-83541009D02*
X124555238Y-83636247D01*
X131746666Y-83064819D02*
X131746666Y-83779104D01*
X131746666Y-83779104D02*
X131699047Y-83921961D01*
X131699047Y-83921961D02*
X131603809Y-84017200D01*
X131603809Y-84017200D02*
X131460952Y-84064819D01*
X131460952Y-84064819D02*
X131365714Y-84064819D01*
X132699047Y-83064819D02*
X132222857Y-83064819D01*
X132222857Y-83064819D02*
X132175238Y-83541009D01*
X132175238Y-83541009D02*
X132222857Y-83493390D01*
X132222857Y-83493390D02*
X132318095Y-83445771D01*
X132318095Y-83445771D02*
X132556190Y-83445771D01*
X132556190Y-83445771D02*
X132651428Y-83493390D01*
X132651428Y-83493390D02*
X132699047Y-83541009D01*
X132699047Y-83541009D02*
X132746666Y-83636247D01*
X132746666Y-83636247D02*
X132746666Y-83874342D01*
X132746666Y-83874342D02*
X132699047Y-83969580D01*
X132699047Y-83969580D02*
X132651428Y-84017200D01*
X132651428Y-84017200D02*
X132556190Y-84064819D01*
X132556190Y-84064819D02*
X132318095Y-84064819D01*
X132318095Y-84064819D02*
X132222857Y-84017200D01*
X132222857Y-84017200D02*
X132175238Y-83969580D01*
X139366666Y-83064819D02*
X139366666Y-83779104D01*
X139366666Y-83779104D02*
X139319047Y-83921961D01*
X139319047Y-83921961D02*
X139223809Y-84017200D01*
X139223809Y-84017200D02*
X139080952Y-84064819D01*
X139080952Y-84064819D02*
X138985714Y-84064819D01*
X140271428Y-83398152D02*
X140271428Y-84064819D01*
X140033333Y-83017200D02*
X139795238Y-83731485D01*
X139795238Y-83731485D02*
X140414285Y-83731485D01*
X146556666Y-83064819D02*
X146556666Y-83779104D01*
X146556666Y-83779104D02*
X146509047Y-83921961D01*
X146509047Y-83921961D02*
X146413809Y-84017200D01*
X146413809Y-84017200D02*
X146270952Y-84064819D01*
X146270952Y-84064819D02*
X146175714Y-84064819D01*
X146937619Y-83064819D02*
X147556666Y-83064819D01*
X147556666Y-83064819D02*
X147223333Y-83445771D01*
X147223333Y-83445771D02*
X147366190Y-83445771D01*
X147366190Y-83445771D02*
X147461428Y-83493390D01*
X147461428Y-83493390D02*
X147509047Y-83541009D01*
X147509047Y-83541009D02*
X147556666Y-83636247D01*
X147556666Y-83636247D02*
X147556666Y-83874342D01*
X147556666Y-83874342D02*
X147509047Y-83969580D01*
X147509047Y-83969580D02*
X147461428Y-84017200D01*
X147461428Y-84017200D02*
X147366190Y-84064819D01*
X147366190Y-84064819D02*
X147080476Y-84064819D01*
X147080476Y-84064819D02*
X146985238Y-84017200D01*
X146985238Y-84017200D02*
X146937619Y-83969580D01*
X154606666Y-83064819D02*
X154606666Y-83779104D01*
X154606666Y-83779104D02*
X154559047Y-83921961D01*
X154559047Y-83921961D02*
X154463809Y-84017200D01*
X154463809Y-84017200D02*
X154320952Y-84064819D01*
X154320952Y-84064819D02*
X154225714Y-84064819D01*
X155035238Y-83160057D02*
X155082857Y-83112438D01*
X155082857Y-83112438D02*
X155178095Y-83064819D01*
X155178095Y-83064819D02*
X155416190Y-83064819D01*
X155416190Y-83064819D02*
X155511428Y-83112438D01*
X155511428Y-83112438D02*
X155559047Y-83160057D01*
X155559047Y-83160057D02*
X155606666Y-83255295D01*
X155606666Y-83255295D02*
X155606666Y-83350533D01*
X155606666Y-83350533D02*
X155559047Y-83493390D01*
X155559047Y-83493390D02*
X154987619Y-84064819D01*
X154987619Y-84064819D02*
X155606666Y-84064819D01*
X197239047Y-84171009D02*
X197381904Y-84218628D01*
X197381904Y-84218628D02*
X197429523Y-84266247D01*
X197429523Y-84266247D02*
X197477142Y-84361485D01*
X197477142Y-84361485D02*
X197477142Y-84504342D01*
X197477142Y-84504342D02*
X197429523Y-84599580D01*
X197429523Y-84599580D02*
X197381904Y-84647200D01*
X197381904Y-84647200D02*
X197286666Y-84694819D01*
X197286666Y-84694819D02*
X196905714Y-84694819D01*
X196905714Y-84694819D02*
X196905714Y-83694819D01*
X196905714Y-83694819D02*
X197239047Y-83694819D01*
X197239047Y-83694819D02*
X197334285Y-83742438D01*
X197334285Y-83742438D02*
X197381904Y-83790057D01*
X197381904Y-83790057D02*
X197429523Y-83885295D01*
X197429523Y-83885295D02*
X197429523Y-83980533D01*
X197429523Y-83980533D02*
X197381904Y-84075771D01*
X197381904Y-84075771D02*
X197334285Y-84123390D01*
X197334285Y-84123390D02*
X197239047Y-84171009D01*
X197239047Y-84171009D02*
X196905714Y-84171009D01*
X197810476Y-83694819D02*
X198477142Y-83694819D01*
X198477142Y-83694819D02*
X197810476Y-84694819D01*
X197810476Y-84694819D02*
X198477142Y-84694819D01*
X199381904Y-84694819D02*
X198810476Y-84694819D01*
X199096190Y-84694819D02*
X199096190Y-83694819D01*
X199096190Y-83694819D02*
X199000952Y-83837676D01*
X199000952Y-83837676D02*
X198905714Y-83932914D01*
X198905714Y-83932914D02*
X198810476Y-83980533D01*
X193929048Y-88973866D02*
X194690953Y-88973866D01*
X194310000Y-89354819D02*
X194310000Y-88592914D01*
X151644819Y-119713333D02*
X152359104Y-119713333D01*
X152359104Y-119713333D02*
X152501961Y-119760952D01*
X152501961Y-119760952D02*
X152597200Y-119856190D01*
X152597200Y-119856190D02*
X152644819Y-119999047D01*
X152644819Y-119999047D02*
X152644819Y-120094285D01*
X152644819Y-118713333D02*
X152644819Y-119284761D01*
X152644819Y-118999047D02*
X151644819Y-118999047D01*
X151644819Y-118999047D02*
X151787676Y-119094285D01*
X151787676Y-119094285D02*
X151882914Y-119189523D01*
X151882914Y-119189523D02*
X151930533Y-119284761D01*
%TO.C,A1*%
X110490000Y-92710000D02*
X110490000Y-110490000D01*
X153670000Y-110490000D02*
X110490000Y-110490000D01*
X153670000Y-92710000D02*
X153670000Y-110490000D01*
X153670000Y-92710000D02*
X110490000Y-92710000D01*
D12*
%TO.C,U1*%
X119340000Y-117620000D02*
X129580000Y-117620000D01*
X129580000Y-116110000D02*
X129580000Y-120751000D01*
X119340000Y-120751000D02*
X129580000Y-120751000D01*
X119340000Y-116110000D02*
X119340000Y-120751000D01*
X126311000Y-116110000D02*
X126311000Y-117620000D01*
X122610000Y-116110000D02*
X122610000Y-117620000D01*
X119340000Y-116110000D02*
X129580000Y-116110000D01*
%TO.C,RV1*%
X167520000Y-86459000D02*
X167520000Y-87554000D01*
X167520000Y-90406000D02*
X167520000Y-92555000D01*
X177760000Y-92905000D02*
X177760000Y-96500000D01*
X177760000Y-86459000D02*
X177760000Y-90055000D01*
X167520000Y-95405000D02*
X167520000Y-96500000D01*
X167520000Y-86459000D02*
X177760000Y-86459000D01*
X167520000Y-96500000D02*
X177760000Y-96500000D01*
%TO.C,R2*%
X175990000Y-107850000D02*
X169450000Y-107850000D01*
X169450000Y-110590000D02*
X175990000Y-110590000D01*
X175990000Y-110590000D02*
X175990000Y-107850000D01*
X169450000Y-107850000D02*
X169450000Y-110590000D01*
X168680000Y-109220000D02*
X169450000Y-109220000D01*
X176760000Y-109220000D02*
X175990000Y-109220000D01*
%TO.C,R1*%
X175990000Y-115470000D02*
X169450000Y-115470000D01*
X169450000Y-118210000D02*
X175990000Y-118210000D01*
X175990000Y-118210000D02*
X175990000Y-115470000D01*
X169450000Y-115470000D02*
X169450000Y-118210000D01*
X168680000Y-116840000D02*
X169450000Y-116840000D01*
X176760000Y-116840000D02*
X175990000Y-116840000D01*
%TO.C,J11*%
X113090000Y-121920000D02*
X113090000Y-123250000D01*
X113090000Y-118050000D02*
X110430000Y-118050000D01*
X113090000Y-120650000D02*
X113090000Y-118050000D01*
X113090000Y-120650000D02*
X110430000Y-120650000D01*
X113090000Y-123250000D02*
X111760000Y-123250000D01*
X110430000Y-120650000D02*
X110430000Y-118050000D01*
%TO.C,J10*%
X186630000Y-109220000D02*
X186630000Y-107890000D01*
X186630000Y-113090000D02*
X189290000Y-113090000D01*
X186630000Y-110490000D02*
X186630000Y-113090000D01*
X186630000Y-110490000D02*
X189290000Y-110490000D01*
X186630000Y-107890000D02*
X187960000Y-107890000D01*
X189290000Y-110490000D02*
X189290000Y-113090000D01*
%TO.C,J9*%
X186630000Y-119380000D02*
X186630000Y-118050000D01*
X186630000Y-123250000D02*
X189290000Y-123250000D01*
X186630000Y-120650000D02*
X186630000Y-123250000D01*
X186630000Y-120650000D02*
X189290000Y-120650000D01*
X186630000Y-118050000D02*
X187960000Y-118050000D01*
X189290000Y-120650000D02*
X189290000Y-123250000D01*
%TO.C,J8*%
X186690000Y-90110000D02*
X189290000Y-90110000D01*
X184090000Y-92770000D02*
X184090000Y-91440000D01*
X186690000Y-92770000D02*
X186690000Y-90110000D01*
X186690000Y-92770000D02*
X189290000Y-92770000D01*
X189290000Y-92770000D02*
X189290000Y-90110000D01*
X185420000Y-92770000D02*
X184090000Y-92770000D01*
%TO.C,J7*%
X118170000Y-81280000D02*
X118170000Y-82610000D01*
X118170000Y-77410000D02*
X115510000Y-77410000D01*
X118170000Y-80010000D02*
X118170000Y-77410000D01*
X118170000Y-80010000D02*
X115510000Y-80010000D01*
X118170000Y-82610000D02*
X116840000Y-82610000D01*
X115510000Y-80010000D02*
X115510000Y-77410000D01*
%TO.C,J6*%
X125790000Y-81280000D02*
X125790000Y-82610000D01*
X125790000Y-77410000D02*
X123130000Y-77410000D01*
X125790000Y-80010000D02*
X125790000Y-77410000D01*
X125790000Y-80010000D02*
X123130000Y-80010000D01*
X125790000Y-82610000D02*
X124460000Y-82610000D01*
X123130000Y-80010000D02*
X123130000Y-77410000D01*
%TO.C,J5*%
X133410000Y-81280000D02*
X133410000Y-82610000D01*
X133410000Y-77410000D02*
X130750000Y-77410000D01*
X133410000Y-80010000D02*
X133410000Y-77410000D01*
X133410000Y-80010000D02*
X130750000Y-80010000D01*
X133410000Y-82610000D02*
X132080000Y-82610000D01*
X130750000Y-80010000D02*
X130750000Y-77410000D01*
%TO.C,J4*%
X138370000Y-80010000D02*
X138370000Y-77410000D01*
X141030000Y-82610000D02*
X139700000Y-82610000D01*
X141030000Y-80010000D02*
X138370000Y-80010000D01*
X141030000Y-80010000D02*
X141030000Y-77410000D01*
X141030000Y-77410000D02*
X138370000Y-77410000D01*
X141030000Y-81280000D02*
X141030000Y-82610000D01*
%TO.C,J3*%
X145560000Y-80010000D02*
X145560000Y-77410000D01*
X148220000Y-82610000D02*
X146890000Y-82610000D01*
X148220000Y-80010000D02*
X145560000Y-80010000D01*
X148220000Y-80010000D02*
X148220000Y-77410000D01*
X148220000Y-77410000D02*
X145560000Y-77410000D01*
X148220000Y-81280000D02*
X148220000Y-82610000D01*
%TO.C,J2*%
X153610000Y-80010000D02*
X153610000Y-77410000D01*
X156270000Y-82610000D02*
X154940000Y-82610000D01*
X156270000Y-80010000D02*
X153610000Y-80010000D01*
X156270000Y-80010000D02*
X156270000Y-77410000D01*
X156270000Y-77410000D02*
X153610000Y-77410000D01*
X156270000Y-81280000D02*
X156270000Y-82610000D01*
%TO.C,BZ1*%
X204220000Y-91440000D02*
G75*
G03*
X204220000Y-91440000I-6100000J0D01*
G01*
%TO.C,J1*%
X148590000Y-120710000D02*
X140910000Y-120710000D01*
X149860000Y-118050000D02*
X151190000Y-118050000D01*
X140910000Y-118050000D02*
X140910000Y-120710000D01*
X148590000Y-118050000D02*
X148590000Y-120710000D01*
X151190000Y-118050000D02*
X151190000Y-119380000D01*
X148590000Y-118050000D02*
X140910000Y-118050000D01*
%TD*%
M02*
