%TF.GenerationSoftware,KiCad,Pcbnew,7.0.7*%
%TF.CreationDate,2023-09-11T15:30:13+03:00*%
%TF.ProjectId,PCB,5043422e-6b69-4636-9164-5f7063625858,rev?*%
%TF.SameCoordinates,Original*%
%TF.FileFunction,Copper,L1,Top*%
%TF.FilePolarity,Positive*%
%FSLAX46Y46*%
G04 Gerber Fmt 4.6, Leading zero omitted, Abs format (unit mm)*
G04 Created by KiCad (PCBNEW 7.0.7) date 2023-09-11 15:30:13*
%MOMM*%
%LPD*%
G01*
G04 APERTURE LIST*
%TA.AperFunction,ComponentPad*%
%ADD10C,1.727200*%
%TD*%
%TA.AperFunction,ComponentPad*%
%ADD11R,1.727200X1.727200*%
%TD*%
%TA.AperFunction,ComponentPad*%
%ADD12O,1.905000X2.000000*%
%TD*%
%TA.AperFunction,ComponentPad*%
%ADD13R,1.905000X2.000000*%
%TD*%
%TA.AperFunction,ComponentPad*%
%ADD14C,2.340000*%
%TD*%
%TA.AperFunction,ComponentPad*%
%ADD15O,1.600000X1.600000*%
%TD*%
%TA.AperFunction,ComponentPad*%
%ADD16C,1.600000*%
%TD*%
%TA.AperFunction,ComponentPad*%
%ADD17R,1.700000X1.700000*%
%TD*%
%TA.AperFunction,ComponentPad*%
%ADD18O,1.700000X1.700000*%
%TD*%
%TA.AperFunction,ComponentPad*%
%ADD19R,2.000000X2.000000*%
%TD*%
%TA.AperFunction,ComponentPad*%
%ADD20C,2.000000*%
%TD*%
%TA.AperFunction,Conductor*%
%ADD21C,0.800000*%
%TD*%
G04 APERTURE END LIST*
D10*
%TO.P,A1,3V3,3.3V*%
%TO.N,unconnected-(A1-3.3V-Pad3V3)*%
X116840000Y-109220000D03*
%TO.P,A1,5V,5V*%
%TO.N,+5V*%
X142240000Y-109220000D03*
%TO.P,A1,A0,A0*%
%TO.N,A0-LED_LEFT*%
X121920000Y-109220000D03*
%TO.P,A1,A1,A1*%
%TO.N,A1-LED_RIGHT*%
X124460000Y-109220000D03*
%TO.P,A1,A2,A2*%
%TO.N,unconnected-(A1-PadA2)*%
X127000000Y-109220000D03*
%TO.P,A1,A3,A3*%
%TO.N,unconnected-(A1-PadA3)*%
X129540000Y-109220000D03*
%TO.P,A1,A4,A4/SDA*%
%TO.N,SDA*%
X132080000Y-109220000D03*
%TO.P,A1,A5,A5/SCL*%
%TO.N,SCL*%
X134620000Y-109220000D03*
%TO.P,A1,A6,A6*%
%TO.N,unconnected-(A1-PadA6)*%
X137160000Y-109220000D03*
%TO.P,A1,A7,A7*%
%TO.N,unconnected-(A1-PadA7)*%
X139700000Y-109220000D03*
%TO.P,A1,AREF,AREF*%
%TO.N,unconnected-(A1-PadAREF)*%
X119380000Y-109220000D03*
%TO.P,A1,D0,D0/RX*%
%TO.N,unconnected-(A1-D0{slash}RX-PadD0)*%
X147320000Y-93980000D03*
%TO.P,A1,D1,D1/TX*%
%TO.N,unconnected-(A1-D1{slash}TX-PadD1)*%
X149860000Y-93980000D03*
%TO.P,A1,D2,D2*%
%TO.N,D2-B_LEFT*%
X139700000Y-93980000D03*
%TO.P,A1,D3,D3*%
%TO.N,D3-B_RIGHT*%
X137160000Y-93980000D03*
%TO.P,A1,D4,D4*%
%TO.N,D4-B_S_S*%
X134620000Y-93980000D03*
%TO.P,A1,D5,D5*%
%TO.N,D5-B_OK*%
X132080000Y-93980000D03*
%TO.P,A1,D6,D6*%
%TO.N,D6-B_sRESET*%
X129540000Y-93980000D03*
%TO.P,A1,D7,D7*%
%TO.N,D7-B_*%
X127000000Y-93980000D03*
%TO.P,A1,D8,D8*%
%TO.N,unconnected-(A1-PadD8)*%
X124460000Y-93980000D03*
%TO.P,A1,D9,D9*%
%TO.N,D9-BUZZ*%
X121920000Y-93980000D03*
%TO.P,A1,D10,D10*%
%TO.N,unconnected-(A1-PadD10)*%
X119380000Y-93980000D03*
%TO.P,A1,D11,D11_MOSI*%
%TO.N,unconnected-(A1-D11_MOSI-PadD11)*%
X116840000Y-93980000D03*
%TO.P,A1,D12,D12_MISO*%
%TO.N,unconnected-(A1-D12_MISO-PadD12)*%
X114300000Y-93980000D03*
%TO.P,A1,D13,D13_SCK*%
%TO.N,unconnected-(A1-D13_SCK-PadD13)*%
X114300000Y-109220000D03*
D11*
%TO.P,A1,GND1,GND*%
%TO.N,GND*%
X142240000Y-93980000D03*
%TO.P,A1,GND2,GND*%
X147320000Y-109220000D03*
D10*
%TO.P,A1,RST1,RESET*%
%TO.N,unconnected-(A1-RESET-PadRST1)*%
X144780000Y-93980000D03*
%TO.P,A1,RST2,RESET*%
%TO.N,unconnected-(A1-RESET-PadRST2)*%
X144780000Y-109220000D03*
%TO.P,A1,VIN,VIN*%
%TO.N,unconnected-(A1-PadVIN)*%
X149860000Y-109220000D03*
%TD*%
D12*
%TO.P,U1,3,VO*%
%TO.N,+5V*%
X127000000Y-119380000D03*
%TO.P,U1,2,GND*%
%TO.N,GND*%
X124460000Y-119380000D03*
D13*
%TO.P,U1,1,VI*%
%TO.N,/V_BAT*%
X121920000Y-119380000D03*
%TD*%
D14*
%TO.P,RV1,1,1*%
%TO.N,D9-BUZZ*%
X167640000Y-93980000D03*
%TO.P,RV1,2,2*%
%TO.N,Net-(J8-Pin_1)*%
X177640000Y-91480000D03*
%TO.P,RV1,3,3*%
X167640000Y-88980000D03*
%TD*%
D15*
%TO.P,R2,2*%
%TO.N,Net-(J10-Pin_1)*%
X177800000Y-109220000D03*
D16*
%TO.P,R2,1*%
%TO.N,A1-LED_RIGHT*%
X167640000Y-109220000D03*
%TD*%
D15*
%TO.P,R1,2*%
%TO.N,Net-(J9-Pin_1)*%
X177800000Y-116840000D03*
D16*
%TO.P,R1,1*%
%TO.N,A0-LED_LEFT*%
X167640000Y-116840000D03*
%TD*%
D17*
%TO.P,J11,1,Pin_1*%
%TO.N,GND*%
X111760000Y-121920000D03*
D18*
%TO.P,J11,2,Pin_2*%
%TO.N,/V_BAT*%
X111760000Y-119380000D03*
%TD*%
D17*
%TO.P,J10,1,Pin_1*%
%TO.N,Net-(J10-Pin_1)*%
X187960000Y-109220000D03*
D18*
%TO.P,J10,2,Pin_2*%
%TO.N,GND*%
X187960000Y-111760000D03*
%TD*%
D17*
%TO.P,J9,1,Pin_1*%
%TO.N,Net-(J9-Pin_1)*%
X187960000Y-119380000D03*
D18*
%TO.P,J9,2,Pin_2*%
%TO.N,GND*%
X187960000Y-121920000D03*
%TD*%
%TO.P,J8,2,Pin_2*%
%TO.N,Net-(BZ1--)*%
X187960000Y-91440000D03*
D17*
%TO.P,J8,1,Pin_1*%
%TO.N,Net-(J8-Pin_1)*%
X185420000Y-91440000D03*
%TD*%
%TO.P,J7,1,Pin_1*%
%TO.N,D7-B_*%
X116840000Y-81280000D03*
D18*
%TO.P,J7,2,Pin_2*%
%TO.N,GND*%
X116840000Y-78740000D03*
%TD*%
D17*
%TO.P,J6,1,Pin_1*%
%TO.N,D6-B_sRESET*%
X124460000Y-81280000D03*
D18*
%TO.P,J6,2,Pin_2*%
%TO.N,GND*%
X124460000Y-78740000D03*
%TD*%
D17*
%TO.P,J5,1,Pin_1*%
%TO.N,D5-B_OK*%
X132080000Y-81280000D03*
D18*
%TO.P,J5,2,Pin_2*%
%TO.N,GND*%
X132080000Y-78740000D03*
%TD*%
%TO.P,J4,2,Pin_2*%
%TO.N,GND*%
X139700000Y-78740000D03*
D17*
%TO.P,J4,1,Pin_1*%
%TO.N,D4-B_S_S*%
X139700000Y-81280000D03*
%TD*%
D18*
%TO.P,J3,2,Pin_2*%
%TO.N,GND*%
X146890000Y-78740000D03*
D17*
%TO.P,J3,1,Pin_1*%
%TO.N,D3-B_RIGHT*%
X146890000Y-81280000D03*
%TD*%
D18*
%TO.P,J2,2,Pin_2*%
%TO.N,GND*%
X154940000Y-78740000D03*
D17*
%TO.P,J2,1,Pin_1*%
%TO.N,D2-B_LEFT*%
X154940000Y-81280000D03*
%TD*%
D19*
%TO.P,BZ1,1,-*%
%TO.N,Net-(BZ1--)*%
X194320000Y-91440000D03*
D20*
%TO.P,BZ1,2,+*%
%TO.N,GND*%
X201920000Y-91440000D03*
%TD*%
D17*
%TO.P,J1,1,Pin_1*%
%TO.N,GND*%
X149860000Y-119380000D03*
D18*
%TO.P,J1,2,Pin_2*%
%TO.N,+5V*%
X147320000Y-119380000D03*
%TO.P,J1,3,Pin_3*%
%TO.N,SDA*%
X144780000Y-119380000D03*
%TO.P,J1,4,Pin_4*%
%TO.N,SCL*%
X142240000Y-119380000D03*
%TD*%
D21*
%TO.N,D9-BUZZ*%
X165100000Y-93980000D02*
X167640000Y-93980000D01*
X160020000Y-99060000D02*
X165100000Y-93980000D01*
X121920000Y-93980000D02*
X127000000Y-99060000D01*
X127000000Y-99060000D02*
X160020000Y-99060000D01*
%TO.N,GND*%
X193040000Y-100320000D02*
X193040000Y-104140000D01*
X201920000Y-91440000D02*
X193040000Y-100320000D01*
X193040000Y-116840000D02*
X187960000Y-121920000D01*
X193040000Y-111760000D02*
X193040000Y-116840000D01*
X193040000Y-111760000D02*
X187960000Y-111760000D01*
X195580000Y-109220000D02*
X193040000Y-111760000D01*
X195580000Y-106680000D02*
X195580000Y-109220000D01*
X193040000Y-104140000D02*
X195580000Y-106680000D01*
X167640000Y-104140000D02*
X193040000Y-104140000D01*
X152400000Y-119380000D02*
X167640000Y-104140000D01*
X149860000Y-119380000D02*
X152400000Y-119380000D01*
%TO.N,Net-(J9-Pin_1)*%
X185420000Y-116840000D02*
X187960000Y-119380000D01*
X177800000Y-116840000D02*
X185420000Y-116840000D01*
%TO.N,Net-(J10-Pin_1)*%
X177800000Y-109220000D02*
X187960000Y-109220000D01*
%TO.N,Net-(BZ1--)*%
X187960000Y-91440000D02*
X194320000Y-91440000D01*
%TO.N,Net-(J8-Pin_1)*%
X185380000Y-91480000D02*
X185420000Y-91440000D01*
X177640000Y-91480000D02*
X185380000Y-91480000D01*
X175140000Y-88980000D02*
X177640000Y-91480000D01*
X167640000Y-88980000D02*
X175140000Y-88980000D01*
%TO.N,GND*%
X149860000Y-86360000D02*
X142240000Y-93980000D01*
X157480000Y-78740000D02*
X160020000Y-81280000D01*
X160020000Y-81280000D02*
X160020000Y-83820000D01*
X160020000Y-83820000D02*
X157480000Y-86360000D01*
X154940000Y-78740000D02*
X157480000Y-78740000D01*
X157480000Y-86360000D02*
X149860000Y-86360000D01*
X146890000Y-78740000D02*
X154940000Y-78740000D01*
X139700000Y-78740000D02*
X146890000Y-78740000D01*
X132080000Y-78740000D02*
X139700000Y-78740000D01*
X124460000Y-78740000D02*
X132080000Y-78740000D01*
X116840000Y-78740000D02*
X124460000Y-78740000D01*
%TO.N,D2-B_LEFT*%
X152400000Y-81280000D02*
X139700000Y-93980000D01*
X154940000Y-81280000D02*
X152400000Y-81280000D01*
%TO.N,D3-B_RIGHT*%
X146890000Y-84250000D02*
X137160000Y-93980000D01*
X146890000Y-81280000D02*
X146890000Y-84250000D01*
%TO.N,D4-B_S_S*%
X139700000Y-88900000D02*
X134620000Y-93980000D01*
X139700000Y-81280000D02*
X139700000Y-88900000D01*
%TO.N,D5-B_OK*%
X132080000Y-81280000D02*
X132080000Y-93980000D01*
%TO.N,D6-B_sRESET*%
X124460000Y-88900000D02*
X129540000Y-93980000D01*
X124460000Y-81280000D02*
X124460000Y-88900000D01*
%TO.N,D7-B_*%
X116840000Y-83820000D02*
X127000000Y-93980000D01*
X116840000Y-81280000D02*
X116840000Y-83820000D01*
%TO.N,A1-LED_RIGHT*%
X139700000Y-124460000D02*
X124460000Y-109220000D01*
X152400000Y-124460000D02*
X139700000Y-124460000D01*
X167640000Y-109220000D02*
X152400000Y-124460000D01*
%TO.N,A0-LED_LEFT*%
X157480000Y-127000000D02*
X139700000Y-127000000D01*
X139700000Y-127000000D02*
X121920000Y-109220000D01*
X167640000Y-116840000D02*
X157480000Y-127000000D01*
%TO.N,SDA*%
X142240000Y-121920000D02*
X144780000Y-119380000D01*
X140970000Y-121920000D02*
X142240000Y-121920000D01*
X132080000Y-113030000D02*
X140970000Y-121920000D01*
X132080000Y-109220000D02*
X132080000Y-113030000D01*
%TO.N,GND*%
X147320000Y-109220000D02*
X147320000Y-116840000D01*
X147320000Y-116840000D02*
X149860000Y-119380000D01*
%TO.N,+5V*%
X142240000Y-114300000D02*
X147320000Y-119380000D01*
X142240000Y-109220000D02*
X142240000Y-114300000D01*
%TO.N,SCL*%
X134620000Y-111760000D02*
X142240000Y-119380000D01*
X134620000Y-109220000D02*
X134620000Y-111760000D01*
%TO.N,GND*%
X111760000Y-104140000D02*
X142240000Y-104140000D01*
X142240000Y-104140000D02*
X147320000Y-109220000D01*
X106680000Y-109220000D02*
X111760000Y-104140000D01*
X106680000Y-111760000D02*
X106680000Y-109220000D01*
X111760000Y-116840000D02*
X106680000Y-111760000D01*
X121920000Y-116840000D02*
X111760000Y-116840000D01*
X124460000Y-119380000D02*
X121920000Y-116840000D01*
%TO.N,+5V*%
X139700000Y-106680000D02*
X142240000Y-109220000D01*
X109220000Y-109220000D02*
X111760000Y-106680000D01*
X111760000Y-106680000D02*
X139700000Y-106680000D01*
X109220000Y-111760000D02*
X109220000Y-109220000D01*
X111760000Y-114300000D02*
X109220000Y-111760000D01*
X127000000Y-119380000D02*
X121920000Y-114300000D01*
X121920000Y-114300000D02*
X111760000Y-114300000D01*
%TO.N,/V_BAT*%
X111760000Y-119380000D02*
X121920000Y-119380000D01*
%TO.N,GND*%
X121920000Y-121920000D02*
X124460000Y-119380000D01*
X111760000Y-121920000D02*
X121920000Y-121920000D01*
%TD*%
M02*
