%TF.GenerationSoftware,KiCad,Pcbnew,7.0.7*%
%TF.CreationDate,2023-09-11T15:30:13+03:00*%
%TF.ProjectId,PCB,5043422e-6b69-4636-9164-5f7063625858,rev?*%
%TF.SameCoordinates,Original*%
%TF.FileFunction,Legend,Bot*%
%TF.FilePolarity,Positive*%
%FSLAX46Y46*%
G04 Gerber Fmt 4.6, Leading zero omitted, Abs format (unit mm)*
G04 Created by KiCad (PCBNEW 7.0.7) date 2023-09-11 15:30:13*
%MOMM*%
%LPD*%
G01*
G04 APERTURE LIST*
%ADD10C,0.075000*%
G04 APERTURE END LIST*
D10*
X111390952Y-101372590D02*
X111390952Y-101872590D01*
X111390952Y-101872590D02*
X111510000Y-101872590D01*
X111510000Y-101872590D02*
X111581428Y-101848780D01*
X111581428Y-101848780D02*
X111629047Y-101801161D01*
X111629047Y-101801161D02*
X111652857Y-101753542D01*
X111652857Y-101753542D02*
X111676666Y-101658304D01*
X111676666Y-101658304D02*
X111676666Y-101586876D01*
X111676666Y-101586876D02*
X111652857Y-101491638D01*
X111652857Y-101491638D02*
X111629047Y-101444019D01*
X111629047Y-101444019D02*
X111581428Y-101396400D01*
X111581428Y-101396400D02*
X111510000Y-101372590D01*
X111510000Y-101372590D02*
X111390952Y-101372590D01*
X111986190Y-101872590D02*
X112033809Y-101872590D01*
X112033809Y-101872590D02*
X112081428Y-101848780D01*
X112081428Y-101848780D02*
X112105238Y-101824971D01*
X112105238Y-101824971D02*
X112129047Y-101777352D01*
X112129047Y-101777352D02*
X112152857Y-101682114D01*
X112152857Y-101682114D02*
X112152857Y-101563066D01*
X112152857Y-101563066D02*
X112129047Y-101467828D01*
X112129047Y-101467828D02*
X112105238Y-101420209D01*
X112105238Y-101420209D02*
X112081428Y-101396400D01*
X112081428Y-101396400D02*
X112033809Y-101372590D01*
X112033809Y-101372590D02*
X111986190Y-101372590D01*
X111986190Y-101372590D02*
X111938571Y-101396400D01*
X111938571Y-101396400D02*
X111914762Y-101420209D01*
X111914762Y-101420209D02*
X111890952Y-101467828D01*
X111890952Y-101467828D02*
X111867143Y-101563066D01*
X111867143Y-101563066D02*
X111867143Y-101682114D01*
X111867143Y-101682114D02*
X111890952Y-101777352D01*
X111890952Y-101777352D02*
X111914762Y-101824971D01*
X111914762Y-101824971D02*
X111938571Y-101848780D01*
X111938571Y-101848780D02*
X111986190Y-101872590D01*
M02*
